<svg xmlns="http://www.w3.org/2000/svg" width="317.26" height="79.32" viewBox="0 0 317.26 79.32">
  <g id="图层_2" data-name="图层 2">
    <g id="图层_1-2" data-name="图层 1">
      <g>
        <g>
          <polygon points="52.7 36.85 61.01 36.85 61.01 14.33 65.34 14.33 65.34 36.85 73.65 36.85 73.65 14.33 90.72 14.33 90.72 6.16 73.65 6.16 73.65 0 65.34 0 65.34 6.16 48.38 6.16 48.38 14.33 52.7 14.33 52.7 36.85"/>
          <path d="M92.54,61.11H84.23v.78a9.35,9.35,0,0,1-9.44,9.27V42.51H15.48V56A15.35,15.35,0,0,1,0,71.16v8.16A23.58,23.58,0,0,0,23.79,56V50.67H66.48V79.32H74A18.37,18.37,0,0,0,92.54,61.11Z"/>
          <polygon points="36.04 60.34 49.1 73.18 54.98 67.41 41.92 54.57 36.04 60.34"/>
          <polygon points="83.19 35.67 90.72 32.22 82.92 15.77 75.38 19.22 83.19 35.67"/>
          <polygon points="6.12 36.85 14.43 36.85 14.43 14.33 18.77 14.33 18.77 36.85 27.08 36.85 27.08 29.63 44.14 29.63 44.14 21.47 27.08 21.47 27.08 14.33 44.14 14.33 44.14 6.16 27.08 6.16 27.08 0 18.77 0 18.77 6.16 1.8 6.16 1.8 14.33 6.12 14.33 6.12 36.85"/>
        </g>
        <g>
          <path d="M112.39,6.16h6.35l8.89,21.57,8.89-21.57h6.36L130.47,34.45h-5.68Z"/>
          <path d="M157.52,6.16h6.09l13.68,28.29h-6L169,29.69H152.47l-2.19,4.76h-6.05ZM166.74,25l-6.12-12.85-6,12.85Z"/>
          <path d="M182.4,6.16h5.74l17.63,9.23V6.16h5.74V34.45h-5.74v-13l-17.63-9.18V34.45H182.4Z"/>
          <path d="M116.17,50.64h5.74V73.89h16.46v5h-22.2Z"/>
          <path d="M143,64.7a14.28,14.28,0,0,1,1.18-5.87,13.16,13.16,0,0,1,3.3-4.56,14.9,14.9,0,0,1,5.11-3,21.24,21.24,0,0,1,13.19,0,14.9,14.9,0,0,1,5.11,3,13.32,13.32,0,0,1,3.31,4.56,14.44,14.44,0,0,1,1.17,5.87,14.64,14.64,0,0,1-1.17,5.91,13.55,13.55,0,0,1-3.31,4.62,15,15,0,0,1-5.11,3,20.68,20.68,0,0,1-13.19,0,15,15,0,0,1-5.11-3,13.39,13.39,0,0,1-3.3-4.62A14.47,14.47,0,0,1,143,64.7Zm5.74,0a9.43,9.43,0,0,0,.79,3.94,8.53,8.53,0,0,0,2.19,3A9.84,9.84,0,0,0,155,73.55a13.22,13.22,0,0,0,8.31,0,9.75,9.75,0,0,0,3.31-1.91,8.78,8.78,0,0,0,2.19-3,10.2,10.2,0,0,0,0-7.87,8.46,8.46,0,0,0-2.19-2.94A9.77,9.77,0,0,0,163.34,56,14,14,0,0,0,155,56a9.87,9.87,0,0,0-3.31,1.84,8.22,8.22,0,0,0-2.19,2.94A9.35,9.35,0,0,0,148.74,64.7Z"/>
          <path d="M181.42,50.64h5.74V66.22a10.27,10.27,0,0,0,.52,3.41,6.62,6.62,0,0,0,1.57,2.53,6.81,6.81,0,0,0,2.58,1.56,12.36,12.36,0,0,0,7.16,0,6.86,6.86,0,0,0,2.59-1.56,6.62,6.62,0,0,0,1.57-2.53,10.27,10.27,0,0,0,.52-3.41V50.64h5.74V66.91a13.07,13.07,0,0,1-.94,5.06,10.79,10.79,0,0,1-2.73,3.91,12.32,12.32,0,0,1-4.4,2.52,20.17,20.17,0,0,1-11.85,0,12.19,12.19,0,0,1-4.39-2.52A10.7,10.7,0,0,1,182.36,72a13.07,13.07,0,0,1-.94-5.06Z"/>
          <path d="M217.1,50.64h5.74l17.64,9.23V50.64h5.74V78.92h-5.74V66l-17.64-9.18V78.92H217.1Z"/>
          <path d="M253,64.52a14,14,0,0,1,1.13-5.59,12.85,12.85,0,0,1,3.27-4.51,15.64,15.64,0,0,1,5.3-3,21.52,21.52,0,0,1,7.2-1.11,26.59,26.59,0,0,1,2.94.16,23.86,23.86,0,0,1,2.91.48,22.13,22.13,0,0,1,2.81.82,17.54,17.54,0,0,1,2.6,1.19l-2.65,4.34a11,11,0,0,0-1.68-.79,17.81,17.81,0,0,0-2-.6,20.33,20.33,0,0,0-4.53-.49,15.28,15.28,0,0,0-4.78.68A10.21,10.21,0,0,0,262,58a8,8,0,0,0-2.21,2.92,9.6,9.6,0,0,0,0,7.58,8.6,8.6,0,0,0,2.26,3,10.64,10.64,0,0,0,3.55,2,14.45,14.45,0,0,0,4.65.71,14.27,14.27,0,0,0,3.75-.46,10.33,10.33,0,0,0,3-1.31A7.48,7.48,0,0,0,279,70.37a6.93,6.93,0,0,0,1-2.7h-9.88V62.94h15v0l0,0a14.9,14.9,0,0,1,.28,4.23,12.48,12.48,0,0,1-.94,3.87,12.23,12.23,0,0,1-2.11,3.34A13,13,0,0,1,279.29,77a16.41,16.41,0,0,1-4.23,1.7,21.21,21.21,0,0,1-5.2.6,20.28,20.28,0,0,1-7.07-1.15A15.8,15.8,0,0,1,257.5,75a13.67,13.67,0,0,1-3.33-4.71A14.58,14.58,0,0,1,253,64.52Z"/>
          <path d="M292.78,50.64h24.1v5H298.52v5.64h16.26V66H298.52v7.87h18.74v5H292.78Z"/>
        </g>
      </g>
    </g>
  </g>
</svg>
