<svg xmlns="http://www.w3.org/2000/svg" width="348.59" height="87.16" viewBox="0 0 348.59 87.16">
  <g id="图层_2" data-name="图层 2">
    <g id="图层_1-2" data-name="图层 1">
      <g>
        <g>
          <polygon points="57.9 40.49 67.03 40.49 67.03 15.74 71.79 15.74 71.79 40.49 80.92 40.49 80.92 15.74 99.68 15.74 99.68 6.77 80.92 6.77 80.92 0 71.79 0 71.79 6.77 53.15 6.77 53.15 15.74 57.9 15.74 57.9 40.49"/>
          <path d="M101.68,67.14H92.55V68A10.28,10.28,0,0,1,82.18,78.19V46.71H17V61.47A16.87,16.87,0,0,1,0,78.19v9A25.91,25.91,0,0,0,26.14,61.47V55.68H73.05V87.16h8.26A20.2,20.2,0,0,0,101.68,67.14Z"/>
          <polygon points="39.6 66.3 53.95 80.41 60.41 74.06 46.06 59.96 39.6 66.3"/>
          <polygon points="91.41 39.19 99.68 35.4 91.11 17.32 82.83 21.11 91.41 39.19"/>
          <polygon points="6.73 40.49 15.86 40.49 15.86 15.74 20.62 15.74 20.62 40.49 29.75 40.49 29.75 32.56 48.5 32.56 48.5 23.59 29.75 23.59 29.75 15.74 48.5 15.74 48.5 6.77 29.75 6.77 29.75 0 20.62 0 20.62 6.77 1.98 6.77 1.98 15.74 6.73 15.74 6.73 40.49"/>
        </g>
        <g>
          <path d="M123.49,6.77h7l9.77,23.7L150,6.77h7L143.36,37.85h-6.25Z"/>
          <path d="M173.08,6.77h6.68l15,31.08h-6.62l-2.49-5.23H167.53l-2.41,5.23h-6.64ZM183.2,27.43l-6.72-14.12-6.54,14.12Z"/>
          <path d="M200.41,6.77h6.31l19.37,10.14V6.77h6.31V37.85h-6.31V23.59L206.72,13.51V37.85h-6.31Z"/>
          <path d="M127.64,55.64H134V81.19H152v5.53H127.64Z"/>
          <path d="M157.12,71.09a15.77,15.77,0,0,1,1.3-6.44,14.45,14.45,0,0,1,3.63-5,16.54,16.54,0,0,1,5.61-3.26,23.4,23.4,0,0,1,14.49,0,16.49,16.49,0,0,1,5.62,3.26,14.45,14.45,0,0,1,3.63,5,15.76,15.76,0,0,1,1.29,6.44,16,16,0,0,1-1.29,6.49,14.78,14.78,0,0,1-3.63,5.08A16.59,16.59,0,0,1,182.15,86a22.65,22.65,0,0,1-14.49,0,16.64,16.64,0,0,1-5.61-3.31,14.78,14.78,0,0,1-3.63-5.08A16,16,0,0,1,157.12,71.09Zm6.31,0a10.4,10.4,0,0,0,.87,4.33,9.43,9.43,0,0,0,2.4,3.29,10.83,10.83,0,0,0,3.64,2.1,14.45,14.45,0,0,0,9.13,0,10.83,10.83,0,0,0,3.64-2.1,9.55,9.55,0,0,0,2.4-3.29,11.07,11.07,0,0,0,0-8.65,9.32,9.32,0,0,0-2.4-3.23,10.83,10.83,0,0,0-3.64-2,15.45,15.45,0,0,0-9.13,0,10.83,10.83,0,0,0-3.64,2,9.2,9.2,0,0,0-2.4,3.23A10.32,10.32,0,0,0,163.43,71.09Z"/>
          <path d="M199.34,55.64h6.3V72.76a11.44,11.44,0,0,0,.58,3.75A7.06,7.06,0,0,0,210.78,81a13.38,13.38,0,0,0,7.86,0,7.29,7.29,0,0,0,2.85-1.72,7.15,7.15,0,0,0,1.72-2.77,11.44,11.44,0,0,0,.58-3.75V55.64h6.3V73.52a14.42,14.42,0,0,1-1,5.56,11.84,11.84,0,0,1-3,4.3,13.63,13.63,0,0,1-4.82,2.76,22.15,22.15,0,0,1-13,0,13.63,13.63,0,0,1-4.82-2.76,11.84,11.84,0,0,1-3-4.3,14.42,14.42,0,0,1-1-5.56Z"/>
          <path d="M238.55,55.64h6.3l19.38,10.14V55.64h6.3V86.72h-6.3V72.46L244.85,62.38V86.72h-6.3Z"/>
          <path d="M278,70.89a15.3,15.3,0,0,1,1.24-6.13,14,14,0,0,1,3.6-5,17.36,17.36,0,0,1,5.82-3.32,23.71,23.71,0,0,1,7.9-1.21,32,32,0,0,1,3.24.17,26.87,26.87,0,0,1,6.28,1.43,20.63,20.63,0,0,1,2.86,1.3L306,62.94a11.8,11.8,0,0,0-1.85-.87,15.85,15.85,0,0,0-2.21-.65,21.22,21.22,0,0,0-2.45-.41,21.5,21.5,0,0,0-2.54-.14,17.29,17.29,0,0,0-5.25.74,11.53,11.53,0,0,0-3.9,2.09,9.06,9.06,0,0,0-2.43,3.21,10.08,10.08,0,0,0-.83,4.1,10.21,10.21,0,0,0,.87,4.24,9.78,9.78,0,0,0,2.49,3.32,11.68,11.68,0,0,0,3.9,2.17,15.48,15.48,0,0,0,5.11.79,15.65,15.65,0,0,0,4.12-.51,11,11,0,0,0,3.26-1.44,8,8,0,0,0,2.27-2.26,7.56,7.56,0,0,0,1.15-3H296.89V69.16h16.53v0l0,0a15.65,15.65,0,0,1,.31,4.64,13.42,13.42,0,0,1-3.35,7.93,14.21,14.21,0,0,1-3.52,2.87,17.88,17.88,0,0,1-4.66,1.87,23.17,23.17,0,0,1-5.71.67,22.12,22.12,0,0,1-7.76-1.28,17.18,17.18,0,0,1-5.82-3.48,14.89,14.89,0,0,1-3.65-5.17A15.79,15.79,0,0,1,278,70.89Z"/>
          <path d="M321.7,55.64h26.48v5.53H328v6.2h17.87v5.19H328v8.65h20.59v5.51H321.7Z"/>
        </g>
      </g>
    </g>
  </g>
</svg>
